<svg width="757" height="600" viewBox="0 0 757 600" fill="none" xmlns="http://www.w3.org/2000/svg">
<g clip-path="url(#clip0_1389_578)">
<rect width="757" height="600" rx="48" fill="#181818"/>
<path d="M16 356C21.6739 326.834 52.2919 292.962 92.9909 292.962C144.988 292.962 168.856 335.065 222.046 331.819C348.503 324.104 320.931 155 433.449 155C534.74 155 530.509 257.446 620.387 257.446C678.913 257.446 706.512 195.997 741 195.997" stroke="url(#paint0_linear_1389_578)" stroke-width="6"/>
<path d="M419.885 120.488C421.973 120.488 423.773 118.976 423.773 116.288C423.773 113.408 421.757 112.16 419.861 112.16C418.061 112.16 416.885 113.216 416.501 114.08L414.317 113.96L415.445 104.6H425.429V106.64H417.221L416.621 111.584C417.557 110.696 418.925 110.264 420.365 110.264C423.413 110.264 426.077 112.424 426.077 116.264C426.077 120.248 423.125 122.312 419.885 122.312C415.877 122.312 414.005 119.768 413.693 116.96H415.949C416.309 119.168 417.461 120.488 419.885 120.488ZM433.863 120.488C436.167 120.488 437.799 119.312 437.799 117.128C437.799 114.632 435.567 113.816 432.783 113.816H432.423V111.824H432.711C435.759 111.824 437.343 110.984 437.343 108.944C437.343 107.096 435.807 106.112 433.959 106.112C431.631 106.112 430.359 107.504 430.167 109.496H427.911C428.175 106.424 430.359 104.288 434.007 104.288C437.007 104.288 439.647 105.512 439.647 108.704C439.647 110.504 438.639 111.992 436.815 112.736C439.407 113.576 440.127 115.256 440.127 117.104C440.127 120.608 437.175 122.312 433.839 122.312C429.711 122.312 427.911 119.768 427.647 116.864H429.903C430.167 119 431.391 120.488 433.863 120.488ZM441.325 106.64V104.6H453.373V106.64C449.053 110.12 446.413 115.472 446.005 122H443.365C443.749 115.736 446.485 110.408 450.829 106.64H441.325ZM454.974 104.6H457.158V114.896L462.366 109.088H465.054L460.134 114.44L465.726 122H463.062L458.67 116.048L457.158 117.68V122H454.974V104.6Z" fill="white" fill-opacity="0.6"/>
<g filter="url(#filter0_d_1389_578)">
<circle cx="439" cy="154" r="12" fill="#F8F8F8"/>
</g>
</g>
<defs>
<filter id="filter0_d_1389_578" x="415" y="132" width="48" height="48" filterUnits="userSpaceOnUse" color-interpolation-filters="sRGB">
<feFlood flood-opacity="0" result="BackgroundImageFix"/>
<feColorMatrix in="SourceAlpha" type="matrix" values="0 0 0 0 0 0 0 0 0 0 0 0 0 0 0 0 0 0 127 0" result="hardAlpha"/>
<feOffset dy="2"/>
<feGaussianBlur stdDeviation="6"/>
<feComposite in2="hardAlpha" operator="out"/>
<feColorMatrix type="matrix" values="0 0 0 0 0 0 0 0 0 0 0 0 0 0 0 0 0 0 1 0"/>
<feBlend mode="normal" in2="BackgroundImageFix" result="effect1_dropShadow_1389_578"/>
<feBlend mode="normal" in="SourceGraphic" in2="effect1_dropShadow_1389_578" result="shape"/>
</filter>
<linearGradient id="paint0_linear_1389_578" x1="14.7391" y1="382.495" x2="740.314" y2="382.495" gradientUnits="userSpaceOnUse">
<stop offset="0.0162038" stop-color="#222222"/>
<stop offset="0.319168" stop-color="#2E77F7"/>
<stop offset="0.697062" stop-color="#2E77F7"/>
<stop offset="0.977895" stop-color="#222222"/>
</linearGradient>
<clipPath id="clip0_1389_578">
<rect width="757" height="600" rx="48" fill="white"/>
</clipPath>
</defs>
</svg>
