<svg width="119" height="31" viewBox="0 0 119 31" fill="none" xmlns="http://www.w3.org/2000/svg">
<path d="M109.5 7.06668V1.4101C107.598 0.546861 105.489 0.0666809 103.27 0.0666809C94.8582 0.0666809 88.0394 6.9615 88.0394 15.4667C88.0394 19.914 89.9038 23.921 92.8854 26.7322V23.8667C92.8854 19.5141 95.5045 15.7801 99.2361 14.1882L94.27 9.16668L97.2071 6.19683L104.225 13.2931C107.213 12.8282 109.5 10.2176 109.5 7.06668Z" fill="white" fill-opacity="0.6"/>
<path d="M113.654 7.06668V4.20117C116.636 7.01236 118.5 11.0194 118.5 15.4667C118.5 23.9719 111.681 30.8667 103.27 30.8667C101.05 30.8667 98.941 30.3865 97.0391 29.5233V23.8667C97.0391 20.612 99.48 17.9337 102.612 17.6014L109.935 25.0059L112.872 22.036L107.537 16.6419C111.144 14.9959 113.654 11.3277 113.654 7.06668Z" fill="white" fill-opacity="0.6"/>
<path fill-rule="evenodd" clip-rule="evenodd" d="M48.6047 26.5912C51.0792 26.5912 52.5511 25.1999 53.2124 23.6685H53.3724V26.3539H58.5347V4.26668H53.3191V12.6249H53.2124C52.5938 11.1042 51.1645 9.5728 48.5834 9.5728C45.1596 9.5728 42.0558 12.2366 42.0558 18.082C42.0558 23.7224 44.989 26.5912 48.6047 26.5912ZM50.4179 22.4822C48.4874 22.4822 47.4101 20.7458 47.4101 18.0712C47.4101 15.4074 48.4767 13.6926 50.4179 13.6926C52.3271 13.6926 53.4364 15.3642 53.4364 18.0712C53.4364 20.7566 52.3165 22.4822 50.4179 22.4822Z" fill="white" fill-opacity="0.6"/>
<path d="M10.3353 9.78849H7.38084V5.81969H2.16519V9.78849H0V13.671H2.16519V21.7272C2.13319 25.0813 4.28771 26.7637 7.96746 26.5912C9.22605 26.5265 10.1327 26.2676 10.634 26.1167L9.84467 22.3096C9.62068 22.3636 9.09805 22.4714 8.70341 22.4714C7.8608 22.4714 7.38084 22.1263 7.38084 21.1449V13.671H10.3353V9.78849Z" fill="white" fill-opacity="0.6"/>
<path d="M12.9965 26.3539H18.2121V17.3594C18.2121 15.3858 19.5987 14.0593 21.4652 14.0593C22.0838 14.0593 23.0118 14.1671 23.5131 14.3397V9.75614C23.0758 9.6375 22.5318 9.56201 22.0518 9.56201C20.26 9.56201 18.8307 10.6189 18.2334 12.8082H18.0628V9.78849H12.9965V26.3539Z" fill="white" fill-opacity="0.6"/>
<path fill-rule="evenodd" clip-rule="evenodd" d="M34.3977 24.046C33.5017 25.7392 31.9232 26.6343 29.6407 26.6343C26.5049 26.6343 24.2544 25.0382 24.2544 21.7596C24.2544 18.0928 27.0275 16.8525 30.3446 16.5721C33.1391 16.3241 34.227 16.1084 34.227 15.0946V15.0407C34.227 13.9298 33.4164 13.3043 32.1365 13.3043C30.7606 13.3043 29.8966 13.9514 29.6727 15.0083L24.8623 14.8358C25.2783 11.816 27.7741 9.5728 32.1792 9.5728C36.3495 9.5728 39.432 11.5896 39.432 15.0946V26.3539H34.5257V24.046H34.3977ZM29.1927 21.5008C29.1927 22.6008 30.046 23.1832 31.2512 23.1832C32.9151 23.1832 34.259 22.0831 34.259 20.4654V18.8908C33.6724 19.2036 32.4778 19.4193 31.5072 19.5595C30.0246 19.786 29.1927 20.4331 29.1927 21.5008Z" fill="white" fill-opacity="0.6"/>
<path fill-rule="evenodd" clip-rule="evenodd" d="M77.2135 21.3066C76.6162 24.5636 73.7897 26.6667 69.4913 26.6667C64.3397 26.6667 61.2039 23.442 61.2039 18.1359C61.2039 13.0024 64.3823 9.5728 69.3313 9.5728C73.9817 9.5728 77.2668 12.571 77.2668 18.0281V19.3438H66.3449V19.484C66.3449 21.5116 67.5821 22.8597 69.5873 22.8597C70.9525 22.8597 72.0191 22.2665 72.4244 21.1664L77.2135 21.3066ZM69.438 13.3798C67.7101 13.3798 66.4195 14.6309 66.3449 16.2809H72.4138C72.3924 14.5877 71.1552 13.3798 69.438 13.3798Z" fill="white" fill-opacity="0.6"/>
</svg>
